<svg width="40" height="150" viewBox="0 0 40 150" fill="none" xmlns="http://www.w3.org/2000/svg">
<rect x="0.5" y="0.5" width="39" height="39" stroke="#898989"/>
<path d="M27.2208 13.0976L12.4458 18.7951C11.4375 19.2001 11.4433 19.7626 12.2608 20.0134L16.0542 21.1968L24.8308 15.6593C25.2458 15.4068 25.625 15.5426 25.3133 15.8193L18.2025 22.2368H18.2008L18.2025 22.2376L17.9408 26.1476C18.3242 26.1476 18.4933 25.9718 18.7083 25.7643L20.5508 23.9726L24.3833 26.8034C25.09 27.1926 25.5975 26.9926 25.7733 26.1493L28.2892 14.2926C28.5467 13.2601 27.895 12.7926 27.2208 13.0976Z" fill="white"/>
<rect x="0.5" y="55.5" width="39" height="39" stroke="#898989"/>
<g clip-path="url(#clip0_0_1)">
<path d="M29.5834 70.4224C29.4701 70.0184 29.2495 69.6527 28.945 69.3641C28.6319 69.0666 28.2482 68.8538 27.83 68.7457C26.265 68.3332 19.995 68.3332 19.995 68.3332C17.3811 68.3035 14.7679 68.4343 12.17 68.7249C11.7519 68.8409 11.3688 69.0585 11.055 69.3582C10.7467 69.6549 10.5234 70.0207 10.4067 70.4216C10.1264 71.9314 9.99027 73.4644 10 74.9999C9.99003 76.5341 10.1259 78.0666 10.4067 79.5782C10.5209 79.9774 10.7434 80.3416 11.0525 80.6357C11.3617 80.9299 11.7467 81.1424 12.17 81.2549C13.7559 81.6666 19.995 81.6666 19.995 81.6666C22.6122 81.6963 25.2288 81.5655 27.83 81.2749C28.2482 81.1669 28.6319 80.9541 28.945 80.6566C29.2534 80.3624 29.4725 79.9966 29.5825 79.5982C29.8701 78.089 30.0099 76.5554 30 75.0191C30.0217 73.4762 29.882 71.9354 29.5834 70.4216V70.4224ZM18.0017 77.8532V72.1474L23.2184 75.0007L18.0017 77.8532Z" fill="white"/>
</g>
<rect x="0.5" y="110.5" width="39" height="39" stroke="#898989"/>
<path d="M29.9687 124.885C30.1387 125.345 29.6164 126.417 28.4018 128.102C28.2317 128.332 28.0131 128.638 27.7459 129.021C27.1872 129.736 26.8713 130.208 26.7985 130.438C26.677 130.744 26.7256 131.038 26.9442 131.319C27.0657 131.472 27.3451 131.778 27.7823 132.238H27.8188V132.276C28.8148 133.22 29.4828 134.025 29.8229 134.688L29.8958 134.842L29.9687 135.129V135.493L29.7136 135.78L29.0941 135.914L26.4341 135.99C26.264 136.016 26.0636 135.99 25.8328 135.914C25.602 135.837 25.4259 135.761 25.3045 135.684L25.0858 135.531C24.8672 135.378 24.6243 135.148 24.357 134.842C24.0898 134.535 23.853 134.254 23.6465 133.999C23.44 133.744 23.2274 133.533 23.0088 133.367C22.7902 133.201 22.5958 133.144 22.4258 133.195C22.4015 133.195 22.3711 133.208 22.3347 133.233C22.2982 133.259 22.2375 133.316 22.1525 133.406C22.0674 133.495 21.9946 133.603 21.9338 133.731C21.8731 133.859 21.8184 134.044 21.7699 134.286C21.7213 134.529 21.697 134.816 21.697 135.148C21.697 135.25 21.6848 135.346 21.6605 135.435C21.6362 135.525 21.612 135.595 21.5877 135.646L21.5512 135.684C21.4055 135.837 21.2111 135.914 20.9682 135.914H19.8021C19.292 135.965 18.7758 135.914 18.2535 135.761C17.7312 135.607 17.2757 135.41 16.887 135.167C16.4983 134.925 16.1461 134.682 15.8303 134.439C15.5145 134.197 15.2715 133.986 15.1015 133.808L14.8464 133.54C14.7735 133.489 14.6764 133.386 14.5549 133.233C14.4334 133.08 14.1844 132.748 13.8079 132.238C13.4314 131.727 13.0609 131.178 12.6965 130.591C12.3321 130.004 11.907 129.231 11.4211 128.274C10.9353 127.317 10.4859 126.327 10.0729 125.306C10.0243 125.179 10 125.077 10 125C10 124.923 10.0121 124.859 10.0364 124.808L10.0729 124.77C10.17 124.617 10.3644 124.54 10.6559 124.54H13.5346C13.6075 124.54 13.6804 124.56 13.7532 124.598L13.9354 124.694L13.9719 124.732C14.0933 124.808 14.1784 124.923 14.2269 125.077C14.3727 125.434 14.5367 125.81 14.7189 126.206C14.9011 126.602 15.0408 126.902 15.1379 127.106L15.2837 127.412C15.5023 127.846 15.7027 128.223 15.8849 128.542C16.0671 128.861 16.2311 129.11 16.3769 129.289C16.5226 129.468 16.6684 129.608 16.8141 129.71C16.9599 129.812 17.0813 129.863 17.1785 129.863C17.2757 129.863 17.3729 129.851 17.47 129.825L17.5065 129.768L17.634 129.519L17.7798 129.021L17.8709 128.14V126.761C17.8466 126.481 17.8101 126.219 17.7615 125.976C17.713 125.734 17.6644 125.562 17.6158 125.459L17.5794 125.345C17.4093 125.089 17.1056 124.923 16.6684 124.847C16.5955 124.847 16.6198 124.757 16.7413 124.579C16.8627 124.451 16.9963 124.349 17.1421 124.272C17.5065 124.068 18.3324 123.979 19.6199 124.004C20.1787 124.004 20.6524 124.055 21.0411 124.157C21.1625 124.183 21.2719 124.228 21.369 124.291C21.4662 124.355 21.5391 124.445 21.5877 124.56C21.6362 124.674 21.6727 124.789 21.697 124.904C21.7213 125.019 21.7334 125.185 21.7334 125.402V125.996C21.7091 126.2 21.697 126.455 21.697 126.761V127.681C21.697 127.757 21.6909 127.91 21.6788 128.14C21.6666 128.37 21.6605 128.549 21.6605 128.676C21.6605 128.804 21.6727 128.951 21.697 129.117C21.7213 129.283 21.7638 129.423 21.8245 129.538C21.8853 129.653 21.9642 129.736 22.0614 129.787C22.11 129.812 22.1646 129.831 22.2253 129.844C22.2861 129.857 22.3772 129.819 22.4986 129.729C22.6201 129.64 22.7537 129.512 22.8995 129.346C23.0452 129.18 23.2274 128.931 23.4461 128.6C23.6647 128.268 23.8955 127.885 24.1384 127.451C24.5514 126.685 24.9279 125.855 25.268 124.962C25.2923 124.911 25.3227 124.853 25.3591 124.789C25.3956 124.725 25.4381 124.681 25.4867 124.655H25.5231L25.5595 124.617L25.7053 124.579H25.9239L28.9119 124.54C29.1792 124.515 29.4039 124.528 29.5861 124.579C29.7683 124.63 29.8715 124.694 29.8958 124.77L29.9687 124.885Z" fill="white"/>
<defs>
<clipPath id="clip0_0_1">
<rect width="20" height="20" fill="white" transform="translate(10 65)"/>
</clipPath>
</defs>
</svg>
